<svg xmlns="http://www.w3.org/2000/svg" width="24" height="24" viewBox="0 0 24 24"><path fill-rule="evenodd" d="M12 2.833a.764.764 0 00-.764.764v1.76l-.714.162a6.602 6.602 0 00-2.06.854l-.619.39L6.6 5.518a.764.764 0 10-1.08 1.08l1.244 1.245-.39.62a6.602 6.602 0 00-.854 2.06l-.162.713h-1.76a.764.764 0 000 1.528h1.76l.162.714c.168.74.46 1.435.854 2.06l.39.619-1.245 1.245a.764.764 0 001.08 1.08l1.245-1.245.62.39a6.605 6.605 0 002.06.854l.713.162v1.76a.764.764 0 101.528 0v-1.76l.714-.162a6.603 6.603 0 002.06-.854l.619-.39 1.245 1.245a.764.764 0 001.08-1.08l-1.245-1.245.39-.62a6.604 6.604 0 00.854-2.06l.162-.713h1.76a.764.764 0 100-1.528h-1.76l-.162-.714a6.605 6.605 0 00-.854-2.06l-.39-.619L18.482 6.6a.764.764 0 00-1.08-1.08l-1.245 1.244-.62-.39a6.602 6.602 0 00-2.06-.854l-.713-.162v-1.76A.764.764 0 0012 2.833zm-2.597.764a2.597 2.597 0 115.194 0v.33c.442.141.868.319 1.275.528l.233-.233a2.597 2.597 0 013.673 3.673l-.233.233c.21.407.387.833.529 1.275h.329a2.597 2.597 0 010 5.194h-.33a8.343 8.343 0 01-.528 1.275l.233.233a2.597 2.597 0 11-3.673 3.673l-.233-.233c-.407.21-.833.387-1.275.529v.329a2.597 2.597 0 11-5.194 0v-.33a8.429 8.429 0 01-1.275-.528l-.233.233a2.597 2.597 0 11-3.673-3.673l.233-.233a8.43 8.43 0 01-.529-1.275h-.329a2.597 2.597 0 110-5.194h.33c.141-.442.319-.868.528-1.275l-.233-.233a2.597 2.597 0 013.673-3.673l.233.233c.407-.21.833-.387 1.275-.529v-.329zM12 8.715a3.285 3.285 0 100 6.57 3.285 3.285 0 000-6.57zM6.882 12a5.118 5.118 0 1110.236 0 5.118 5.118 0 01-10.236 0z"/></svg>