<svg xmlns="http://www.w3.org/2000/svg" width="24" height="24" viewBox="0 0 24 24"><path fill-rule="evenodd" d="M12.778 7.939a1 1 0 01-1.556 0L9.84 6.227c-1.176-1.454-3.234-1.635-4.624-.44-1.421 1.22-1.631 3.43-.441 4.919l6.814 8.045.036.048A.459.459 0 0012 19a.459.459 0 00.376-.201l.036-.048 6.814-8.045c1.19-1.49.98-3.7-.44-4.92-1.39-1.194-3.449-1.013-4.625.441L12.778 7.94zM12 5.719l.606-.75c.229-.282.48-.535.747-.757a5.193 5.193 0 016.735.057c2.254 1.935 2.559 5.387.68 7.71l-6.792 8.019a2.45 2.45 0 01-3.952 0L3.23 11.979c-1.878-2.323-1.573-5.775.68-7.71a5.193 5.193 0 016.736-.057c.268.222.518.475.747.758l.606.75z"/></svg>