<svg xmlns="http://www.w3.org/2000/svg" width="24" height="24" viewBox="0 0 24 24"><path fill-rule="evenodd" d="M11.18 1.202a1.756 1.756 0 011.638 0l8.173 4.28c.678.356 1.09 1.12.996 1.93-.531 4.575-2.154 12.507-9.667 15.458a.88.88 0 01-.66-.008C4.616 19.912 2.588 12.026 2.014 7.42a1.916 1.916 0 01.992-1.937l8.174-4.28zm-6.733 5.67a.977.977 0 00-.52 1.007c.641 4.299 2.512 10.258 7.684 12.868.252.127.55.13.804.01 5.514-2.6 7.088-8.55 7.668-12.882a.983.983 0 00-.524-1L12.463 3.16a1 1 0 00-.928 0L4.447 6.87z"/></svg>