<svg xmlns="http://www.w3.org/2000/svg" width="24" height="24" viewBox="0 0 24 24"><path fill-rule="evenodd" d="M12 5.007l-1.788 3.276A2.87 2.87 0 018.31 9.728l-3.53.767 2.425 2.792a3.08 3.08 0 01.726 2.338l-.394 3.75 3.287-1.55a2.743 2.743 0 012.35 0l3.287 1.55-.394-3.75a3.08 3.08 0 01.726-2.338l2.425-2.792-3.53-.767a2.87 2.87 0 01-1.9-1.445L12 5.007zm.827-2.504a.932.932 0 00-1.654 0L8.557 7.294a.957.957 0 01-.633.482L2.76 8.898c-.722.157-1.007 1.076-.511 1.647l3.547 4.083c.184.211.272.495.242.78l-.576 5.485c-.08.767.666 1.334 1.339 1.017l4.807-2.268a.914.914 0 01.784 0l4.807 2.268c.673.317 1.42-.25 1.34-1.017l-.577-5.486c-.03-.284.058-.568.242-.779l3.547-4.083c.496-.571.211-1.49-.51-1.647l-5.165-1.122a.957.957 0 01-.633-.482l-2.616-4.791z"/></svg>