<svg xmlns="http://www.w3.org/2000/svg" width="24" height="24" viewBox="0 0 24 24"><path fill-rule="evenodd" d="M13.479 1.655a1.996 1.996 0 00-2.957 0L9.229 3.081c-.401.442-.98.682-1.576.653L5.73 3.64a1.996 1.996 0 00-2.09 2.09l.094 1.923a1.995 1.995 0 01-.653 1.576l-1.426 1.293a1.996 1.996 0 000 2.957l1.426 1.292c.442.401.682.98.653 1.576L3.64 18.27a1.996 1.996 0 002.09 2.091l1.923-.094a1.995 1.995 0 011.576.653l1.293 1.426a1.996 1.996 0 002.957 0l1.292-1.426c.401-.442.98-.682 1.576-.653l1.922.094a1.996 1.996 0 002.091-2.09l-.094-1.923a1.995 1.995 0 01.653-1.576l1.426-1.293a1.996 1.996 0 000-2.957L20.919 9.23a1.996 1.996 0 01-.653-1.576l.094-1.922a1.996 1.996 0 00-2.09-2.091l-1.923.094a1.996 1.996 0 01-1.576-.653l-1.293-1.426zm4.216 8.556a.998.998 0 00-1.41-1.412l-5.782 5.782-2.787-2.788a.998.998 0 00-1.411 1.412l3.492 3.492a.998.998 0 001.412 0l6.486-6.486z"/></svg>