<svg xmlns="http://www.w3.org/2000/svg" width="24" height="24" viewBox="0 0 24 24"><path fill-rule="evenodd" d="M10.362 3.965L2.275 17.99C1.511 19.315 2.428 21 3.913 21h16.174c1.485 0 2.402-1.685 1.638-3.01L13.638 3.965a1.873 1.873 0 00-3.276 0zm-.035 5.094c-.126-1.047.659-1.972 1.673-1.972s1.8.925 1.673 1.972l-.6 4.992c-.067.564-.527.986-1.073.986-.545 0-1.006-.422-1.073-.986l-.6-4.992zm.718 7.966c0-.549.428-.994.955-.994.528 0 .955.445.955.994 0 .549-.427.994-.955.994-.527 0-.955-.445-.955-.994z"/></svg>