<svg xmlns="http://www.w3.org/2000/svg" width="24" height="24" viewBox="0 0 24 24"><path d="M10.478 8.875a1.527 1.527 0 113.044 0l-.351 4.927a1.174 1.174 0 01-2.342 0l-.351-4.927zm2.615 8.205a1.093 1.093 0 11-2.186 0 1.093 1.093 0 012.186 0z"/><path fill-rule="evenodd" d="M15.91 4.418c-1.611-3.224-6.209-3.224-7.82 0L2.467 15.67c-1.453 2.908.66 6.33 3.91 6.33h11.246c3.25 0 5.363-3.422 3.91-6.33L15.91 4.418zm-5.865.978c.806-1.612 3.104-1.612 3.91 0l5.623 11.252c.727 1.454-.33 3.165-1.955 3.165H6.377c-1.625 0-2.682-1.71-1.955-3.165l5.623-11.252z"/></svg>