<svg width="24" height="24" viewBox="0 0 24 24" fill="none" xmlns="http://www.w3.org/2000/svg">
<path fill-rule="evenodd" clip-rule="evenodd" d="M18 5C18 3.89543 17.1046 3 16 3L8 3C6.89543 3 6 3.89543 6 5L6 19.8258L10.0476 16.3564C11.1711 15.3934 12.8289 15.3934 13.9524 16.3564L18 19.8258L18 5ZM16 1C18.2091 1 20 2.79086 20 5L20 22C20 22.3905 19.7727 22.7453 19.4179 22.9085C19.0631 23.0717 18.6457 23.0134 18.3492 22.7593L12.6508 17.8749C12.2763 17.5539 11.7237 17.5539 11.3492 17.8749L5.65079 22.7593C5.35428 23.0134 4.93694 23.0717 4.58214 22.9085C4.22734 22.7453 4 22.3905 4 22L4 5C4 2.79086 5.79086 0.999999 8 0.999999L16 1Z" fill="#F2F2F2"/>
</svg>
