<svg xmlns="http://www.w3.org/2000/svg" width="24" height="24" viewBox="0 0 24 24"><path fill-rule="evenodd" d="M7.764 4.336A2.795 2.795 0 0110.52 2h2.958c1.367 0 2.533.988 2.757 2.336A.795.795 0 0017.02 5H19a4 4 0 014 4v9a4 4 0 01-4 4H5a4 4 0 01-4-4V9a4 4 0 014-4h1.98c.388 0 .72-.281.784-.664zM10.52 4a.795.795 0 00-.785.664A2.795 2.795 0 016.98 7H5a2 2 0 00-2 2v9a2 2 0 002 2h14a2 2 0 002-2V9a2 2 0 00-2-2h-1.98a2.795 2.795 0 01-2.756-2.336.795.795 0 00-.785-.664h-2.958zM12 10a3 3 0 100 6 3 3 0 000-6zm-5 3a5 5 0 1110 0 5 5 0 01-10 0z"/></svg>