<svg xmlns="http://www.w3.org/2000/svg" width="24" height="24" viewBox="0 0 24 24"><path d="M8.828 22c-.89 0-1.337-1.077-.707-1.707A1 1 0 018.828 20H19a2 2 0 002-2V9c0-.14-.015-.278-.042-.41-.101-.486-.092-1.042.259-1.393l.05-.05c.411-.411 1.098-.388 1.347.137.248.52.386 1.102.386 1.716v9a4 4 0 01-4 4H8.828z"/><path d="M15.808 12.606C16.256 12.158 17 12.367 17 13a5 5 0 01-5 5c-.633 0-.842-.744-.394-1.192l.608-.608c.152-.151.35-.245.556-.3a3.005 3.005 0 002.13-2.13c.055-.207.149-.404.3-.556l.608-.608z"/><path fill-rule="evenodd" d="M10.52 2a2.795 2.795 0 00-2.756 2.336.795.795 0 01-.785.664H5a4 4 0 00-4 4v9a4.002 4.002 0 002.648 3.766l17.56-17.559a1 1 0 00-1.415-1.414L17.586 5h-.565a.795.795 0 01-.785-.664A2.795 2.795 0 0013.48 2h-2.958zm5.325 4.74l-1.728 1.73a5 5 0 00-6.648 6.648l-4.075 4.075A1.991 1.991 0 013 18V9a2 2 0 012-2h1.98a2.795 2.795 0 002.756-2.336.795.795 0 01.785-.664h2.958c.389 0 .72.281.785.664a2.795 2.795 0 001.58 2.077zm-3.307 3.308l-3.49 3.49a3 3 0 013.49-3.49z"/></svg>