<svg xmlns="http://www.w3.org/2000/svg" width="24" height="24" viewBox="0 0 24 24"><path d="M7 9a1 1 0 000 2h10a1 1 0 100-2H7zm0 4a1 1 0 100 2h10a1 1 0 100-2H7z"/><path fill-rule="evenodd" d="M1 16.984a2.998 2.998 0 003 2.996h2v1.498c0 .083.014.152.039.21.264.606 1.184.193 1.824-.093l.107-.048 3.53-1.567H20c1.657 0 3-1.341 3-2.996V6.996A2.998 2.998 0 0020 4H4C2.343 4 1 5.341 1 6.996v9.988zm7 2.362V17.98H4c-.555 0-1-.448-1-.996V6.996A.998.998 0 014 6h16c.555 0 1 .448 1 .996v9.988a.998.998 0 01-1 .996h-8.924L8 19.346zm-1.561.665l.007-.002.006-.001-.013.003z"/></svg>