<svg width="24" height="24" viewBox="0 0 24 24" fill="none" xmlns="http://www.w3.org/2000/svg">
<path fill-rule="evenodd" clip-rule="evenodd" d="M4 4C2.34315 4 1 5.34149 1 6.99629V16.9839C1 18.6387 2.34315 19.9802 4 19.9802H6V21.4784C6 21.5609 6.01366 21.6298 6.03872 21.6873C6.31791 22.328 7.33033 21.8311 7.96962 21.5473L11.5 19.9802H20C21.6569 19.9802 23 18.6387 23 16.9839V6.99629C23 5.34149 21.6569 4 20 4H4ZM5 9.99259C5 9.44098 5.44772 8.99382 6 8.99382H18C18.5523 8.99382 19 9.44098 19 9.99259C19 10.5442 18.5523 10.9913 18 10.9913H6C5.44772 10.9913 5 10.5442 5 9.99259ZM5 13.9876C5 13.436 5.44772 12.9889 6 12.9889H18C18.5523 12.9889 19 13.436 19 13.9876C19 14.5392 18.5523 14.9864 18 14.9864H6C5.44772 14.9864 5 14.5392 5 13.9876Z" fill="#F2F2F2"/>
</svg>