<svg xmlns="http://www.w3.org/2000/svg" width="24" height="24" viewBox="0 0 24 24"><path d="M9 9.764c0 .858-.672 1.553-1.5 1.553S6 10.622 6 9.764c0-.857.672-1.553 1.5-1.553S9 8.907 9 9.764zm4.5 0c0 .858-.672 1.553-1.5 1.553s-1.5-.695-1.5-1.553c0-.857.672-1.553 1.5-1.553s1.5.696 1.5 1.553zm4.5 0c0 .858-.672 1.553-1.5 1.553S15 10.622 15 9.764c0-.857.672-1.553 1.5-1.553s1.5.696 1.5 1.553z"/><path fill-rule="evenodd" d="M5 2C2.79 2 1 3.854 1 6.14v7.632c0 2.287 1.79 4.14 4 4.14h.5v2.015c0 1.57 1.624 2.57 2.956 1.818l6.351-3.58c.294-.166.623-.252.957-.252H19c2.21 0 4-1.854 4-4.141V6.14C23 3.854 21.21 2 19 2H5zM3 6.14c0-1.143.895-2.07 2-2.07h14c1.105 0 2 .927 2 2.07v7.632c0 1.143-.895 2.07-2 2.07h-3.236c-.668 0-1.326.174-1.913.504L7.5 19.926v-2.53c0-.858-.672-1.554-1.5-1.554H5c-1.105 0-2-.927-2-2.07V6.14z"/></svg>