<svg width="24" height="24" viewBox="0 0 24 24" fill="none" xmlns="http://www.w3.org/2000/svg">
<path d="M12.9167 6.5C12.9167 5.99374 12.5063 5.58333 12 5.58333C11.4937 5.58333 11.0833 5.99374 11.0833 6.5V12.1808L9.40395 14.6999C9.12313 15.1211 9.23696 15.6902 9.65819 15.971C10.0794 16.2519 10.6486 16.138 10.9294 15.7168L12.9167 12.7359V6.5Z" fill="#F2F2F2"/>
<path fill-rule="evenodd" clip-rule="evenodd" d="M23 12C23 18.0751 18.0751 23 12 23C5.92487 23 1 18.0751 1 12C1 5.92487 5.92487 1 12 1C18.0751 1 23 5.92487 23 12ZM21.1667 12C21.1667 17.0626 17.0626 21.1667 12 21.1667C6.93739 21.1667 2.83333 17.0626 2.83333 12C2.83333 6.93739 6.93739 2.83333 12 2.83333C17.0626 2.83333 21.1667 6.93739 21.1667 12Z" fill="#F2F2F2"/>
</svg>
