<svg xmlns="http://www.w3.org/2000/svg" width="24" height="24" viewBox="0 0 24 24"><path fill-rule="evenodd" d="M12 1c-1.012 0-1.833.82-1.833 1.833v1.121a8.202 8.202 0 00-2.56 1.061l-.792-.793a1.833 1.833 0 10-2.593 2.593l.793.793a8.202 8.202 0 00-1.06 2.559H2.832a1.833 1.833 0 100 3.666h1.121a8.202 8.202 0 001.061 2.56l-.793.793a1.833 1.833 0 102.593 2.592l.793-.793a8.203 8.203 0 002.559 1.06v1.122a1.833 1.833 0 003.666 0v-1.121a8.203 8.203 0 002.56-1.061l.793.793a1.833 1.833 0 002.592-2.593l-.793-.793a8.203 8.203 0 001.06-2.559h1.122a1.833 1.833 0 000-3.666h-1.121a8.203 8.203 0 00-1.061-2.56l.793-.792a1.833 1.833 0 00-2.592-2.593l-.794.793a8.202 8.202 0 00-2.559-1.06V2.832A1.831 1.831 0 0012 1zm0 15.583a4.583 4.583 0 100-9.166 4.583 4.583 0 000 9.166z"/></svg>