<svg xmlns="http://www.w3.org/2000/svg" width="24" height="24" viewBox="0 0 24 24"><path fill-rule="evenodd" d="M16.167 4.09a.351.351 0 00.025.18A9 9 0 014.27 16.192a.351.351 0 00-.18-.026.415.415 0 00-.063.01 9 9 0 1012.151-12.15.441.441 0 00-.011.064zm.066-.182zM3.908 16.233l.001-.001a.014.014 0 01-.001.001zM15.526 2.047a1.774 1.774 0 011.384.107A11 11 0 0123 12c0 6.075-4.925 11-11 11a11 11 0 01-9.846-6.09 1.774 1.774 0 01-.107-1.384c.148-.431.445-.753.763-.966a2.387 2.387 0 012.29-.187 7 7 0 009.274-9.274 2.387 2.387 0 01.186-2.29c.213-.317.535-.614.966-.762z"/></svg>