<svg xmlns="http://www.w3.org/2000/svg" width="24" height="24" viewBox="0 0 24 24"><path fill-rule="evenodd" d="M13.36 4.545a1.993 1.993 0 00-2.72 0l-6.012 5.597 6.294 4.044a1.992 1.992 0 002.156 0l6.294-4.044-6.012-5.597zM20 12.123l-5.845 3.756a3.985 3.985 0 01-4.31 0L4 12.123v5.859c0 1.11.895 2.009 2 2.009h12c1.105 0 2-.9 2-2.01v-5.858zM9.28 3.071a3.987 3.987 0 015.44 0l6.96 6.48c.204.19.32.458.32.738v7.693C22 20.2 20.21 22 18 22H6c-2.21 0-4-1.799-4-4.018v-7.693c0-.28.116-.547.32-.737l6.96-6.48z"/></svg>