<svg width="24" height="24" viewBox="0 0 24 24" fill="none" xmlns="http://www.w3.org/2000/svg">
<path fill-rule="evenodd" clip-rule="evenodd" d="M23 16C23 18.2091 21.2091 20 19 20H5C4.99137 20 4.98275 20 4.97413 19.9999C2.7769 19.986 1 18.2005 1 16L1 8C1 5.79086 2.79086 4 5 4L19 4C21.2091 4 23 5.79086 23 8V16ZM3 16L3 7.41421L9.17158 13.5858C10.7337 15.1479 13.2663 15.1479 14.8284 13.5858L21 7.41422V16C21 17.1046 20.1046 18 19 18H5C3.89543 18 3 17.1046 3 16ZM4.41421 6L19.5858 6L13.4142 12.1716C12.6332 12.9526 11.3668 12.9526 10.5858 12.1716L4.41421 6Z" fill="#F2F2F2"/>
</svg>
