<svg width="24" height="24" viewBox="0 0 24 24" fill="none" xmlns="http://www.w3.org/2000/svg">
<path fill-rule="evenodd" clip-rule="evenodd" d="M13.3595 4.54464C12.5926 3.83056 11.4074 3.83056 10.6405 4.54464L4.62825 10.1422L10.9224 14.186C11.5794 14.6081 12.4206 14.6081 13.0776 14.186L19.3717 10.1422L13.3595 4.54464ZM20 12.1234L14.1552 15.8786C12.8413 16.7227 11.1587 16.7227 9.84482 15.8786L4 12.1234V17.9818C4 19.0914 4.89543 19.9909 6 19.9909H18C19.1046 19.9909 20 19.0914 20 17.9818V12.1234ZM9.28094 3.07112C10.8149 1.64296 13.1851 1.64296 14.7191 3.07112L21.6798 9.55179C21.8839 9.74189 22 10.0089 22 10.2885V17.9818C22 20.201 20.2091 22 18 22H6C3.79086 22 2 20.201 2 17.9818V10.2885C2 10.0089 2.11605 9.74189 2.32024 9.55179L9.28094 3.07112Z" fill="#F2F2F2"/>
</svg>
