<svg width="24" height="24" viewBox="0 0 24 24" fill="none" xmlns="http://www.w3.org/2000/svg">
<path fill-rule="evenodd" clip-rule="evenodd" d="M12 23C18.0751 23 23 18.0751 23 12C23 5.92487 18.0751 1 12 1C5.92487 1 1 5.92487 1 12C1 18.0751 5.92487 23 12 23ZM9 13C9 14.1046 8.10457 15 7 15C5.89543 15 5 14.1046 5 13C5 11.8954 5.89543 11 7 11C8.10457 11 9 11.8954 9 13ZM18 9C18 10.1046 17.1046 11 16 11C14.8954 11 14 10.1046 14 9C14 7.89543 14.8954 7 16 7C17.1046 7 18 7.89543 18 9ZM15.9206 12.5016C16.1959 12.5236 16.4011 12.7647 16.3791 13.0399C16.2369 14.8149 14.7675 16.2251 12.9504 16.2563C12.1121 16.2707 11.3364 15.9886 10.7254 15.507C10.5085 15.3361 10.4712 15.0217 10.6421 14.8048C10.813 14.588 11.1274 14.5507 11.3443 14.7216C11.781 15.0657 12.3337 15.2668 12.9332 15.2565C14.2307 15.2342 15.2808 14.227 15.3823 12.9601C15.4043 12.6848 15.6453 12.4795 15.9206 12.5016Z" fill="#F2F2F2"/>
</svg>
