<svg xmlns="http://www.w3.org/2000/svg" width="24" height="24" viewBox="0 0 24 24"><path fill-rule="evenodd" d="M3.655 6.76C3.24 7.267 3 7.923 3 8.5a1 1 0 01-2 0c0-1.081.43-2.175 1.103-3.002C2.775 4.67 3.786 4 5 4h1.5a1 1 0 010 2H5c-.443 0-.931.25-1.345.76zM19 6h-1.5a1 1 0 110-2H19c1.214 0 2.225.671 2.897 1.498C22.57 6.325 23 7.418 23 8.5a1 1 0 11-2 0c0-.576-.241-1.232-.655-1.74C19.932 6.25 19.443 6 19 6zM2 14.5a1 1 0 011 1c0 .576.241 1.232.655 1.74.414.51.902.76 1.345.76h1.5a1 1 0 110 2H5c-1.214 0-2.225-.671-2.897-1.498C1.43 17.675 1 16.582 1 15.5a1 1 0 011-1zm20 0a1 1 0 011 1c0 1.081-.43 2.175-1.103 3.002C21.225 19.329 20.214 20 19 20h-1.5a1 1 0 110-2H19c.443 0 .931-.25 1.345-.76.414-.508.655-1.164.655-1.74a1 1 0 011-1z"/></svg>