<svg xmlns="http://www.w3.org/2000/svg" width="24" height="24" viewBox="0 0 24 24"><path fill-rule="evenodd" d="M9.25 22.654a10.945 10.945 0 01-3.363-1.508 10.994 10.994 0 01-4.85-10.063 10.994 10.994 0 014.85-8.23A10.945 10.945 0 0112 1a10.944 10.944 0 016.113 1.853 10.994 10.994 0 014.85 10.064 10.994 10.994 0 01-4.85 8.23A10.943 10.943 0 0112 23c-.95 0-1.871-.12-2.75-.346zm-2.712-9.737a10.977 10.977 0 003.783 7.418 9.09 9.09 0 01-1.071.412 9.175 9.175 0 01-6.371-7.83h3.659zm9.083 0A9.157 9.157 0 0112 19.334a9.157 9.157 0 01-3.621-6.417h7.242zm-1.942 7.418a10.977 10.977 0 003.783-7.418h3.66a9.175 9.175 0 01-6.372 7.83 9.09 9.09 0 01-1.071-.412zM12 4.666a9.157 9.157 0 00-3.621 6.417h7.242A9.157 9.157 0 0012 4.666zm5.462 6.417a10.976 10.976 0 00-3.783-7.418 9.1 9.1 0 011.071-.412 9.175 9.175 0 016.371 7.83h-3.659zm-10.924 0a10.977 10.977 0 013.783-7.418 9.1 9.1 0 00-1.071-.412 9.175 9.175 0 00-6.371 7.83h3.659z"/></svg>