<svg xmlns="http://www.w3.org/2000/svg" width="24" height="24" viewBox="0 0 24 24"><path d="M11.09 9.962a4.228 4.228 0 002.243-3.731C13.333 3.894 11.431 2 9.083 2c-2.347 0-4.25 1.894-4.25 4.23 0 1.6.891 2.992 2.206 3.711-.366 1.276-.846 1.726-2.13 1.987A3.531 3.531 0 002 15.398V21a1 1 0 001 1h13.167v-6.603a3.531 3.531 0 00-2.91-3.47c-1.383-.127-2.046-.424-2.168-1.965z"/><path d="M13.455 2.257A4.26 4.26 0 0114.917 2c2.347 0 4.25 1.894 4.25 4.23a4.227 4.227 0 01-2.245 3.732c.122 1.541.785 1.838 2.17 1.966A3.531 3.531 0 0122 15.398V21a1 1 0 01-1 1h-3.167v-6.603c0-2.558-1.852-4.673-4.28-5.11l-.07-.012-.086-.008A5.866 5.866 0 0015 6.231a5.863 5.863 0 00-1.545-3.974z"/></svg>