<svg xmlns="http://www.w3.org/2000/svg" width="24" height="24" viewBox="0 0 24 24"><path d="M14 6.615c0 2.55-2.015 4.616-4.5 4.616S5 9.164 5 6.615C5 4.066 7.015 2 9.5 2S14 4.066 14 6.615z"/><path d="M13.804 11.114a6.338 6.338 0 001.863-4.499c0-1.778-.732-3.4-1.916-4.551A4.42 4.42 0 0114.5 2C16.985 2 19 4.066 19 6.615c0 2.55-2.015 4.616-4.5 4.616l-.089-.001a5.54 5.54 0 00-.188-.038l-.419-.078zM2 16.615c0-1.89 1.329-3.46 3.08-3.784a7.342 7.342 0 004.42 1.477c1.653 0 3.18-.549 4.42-1.477 1.752.324 3.08 1.895 3.08 3.784V22H3a1 1 0 01-1-1v-4.385zm16.92-3.785c1.751.325 3.08 1.896 3.08 3.785V21a1 1 0 01-1 1h-2.333v-5.385a5.566 5.566 0 00-.915-3.066 7.46 7.46 0 001.168-.718z"/></svg>