<svg xmlns="http://www.w3.org/2000/svg" width="24" height="24" viewBox="0 0 24 24"><path fill-rule="evenodd" d="M9.62 1C7.514 1 5.806 2.79 5.806 5S7.513 9 9.62 9s3.815-1.79 3.815-4-1.708-4-3.815-4zM7.714 5c0-1.105.854-2 1.908-2 1.053 0 1.907.895 1.907 2s-.854 2-1.907 2c-1.054 0-1.908-.895-1.908-2zm1.906 5c-3.208 0-5.145 1.286-6.261 2.854-1.077 1.513-1.304 3.168-1.354 3.817-.042.53.2 1.026.613 1.308.38.26 1.191.759 2.365 1.196C5.488 21.37 7.373 23 9.621 23c2.248 0 4.132-1.63 4.637-3.825a11.18 11.18 0 002.365-1.196c.413-.282.655-.778.614-1.308-.05-.65-.278-2.304-1.355-3.817C14.766 11.286 12.83 10 9.621 10zm-3.516 7.457a10.21 10.21 0 01-2.159-.97c.086-.592.32-1.561.943-2.437.73-1.025 2.08-2.05 4.733-2.05 2.652 0 4.003 1.025 4.732 2.05.624.876.857 1.845.943 2.437a10.14 10.14 0 01-2.159.97.99.99 0 00-.67.854C12.32 19.821 11.101 21 9.621 21s-2.7-1.179-2.847-2.689a.99.99 0 00-.67-.854z"/><path d="M14.38 1c-.159 0-.315.01-.468.03a6.07 6.07 0 011.15 2.101c.716.288 1.225 1.016 1.225 1.869s-.509 1.58-1.226 1.868A6.076 6.076 0 0114 8.864c.097.043.193.088.287.135L14.38 9c2.108 0 3.816-1.79 3.816-4s-1.708-4-3.816-4zm0 22h-.086a7.04 7.04 0 001.49-2.305 12.4 12.4 0 001.88-1.04 3.457 3.457 0 001.48-2.685 9.21 9.21 0 00.91-.483c-.085-.592-.318-1.561-.942-2.437a4.44 4.44 0 00-.839-.892 9.042 9.042 0 00-.861-1.5 8.378 8.378 0 00-1.41-1.537c2.262.355 3.726 1.45 4.64 2.733 1.076 1.513 1.303 3.168 1.354 3.817a1.444 1.444 0 01-.614 1.308c-.38.26-1.191.759-2.366 1.196C18.512 21.37 16.629 23 14.38 23z"/></svg>