<svg xmlns="http://www.w3.org/2000/svg" width="24" height="24" viewBox="0 0 24 24"><path d="M2.691 11.41c-.603-.604-.876-1.466-.556-2.256.303-.748.817-1.757 1.672-2.856L3.05 5.54a1.761 1.761 0 012.49-2.49l.758.757a12.031 12.031 0 012.856-1.672c.79-.32 1.652-.047 2.255.556l2.528 2.529c.604.603.877 1.465.557 2.255a11.81 11.81 0 01-1.37 2.45 14.042 14.042 0 01-1.472 1.727 14.05 14.05 0 01-1.788 1.517 11.774 11.774 0 01-2.389 1.325c-.79.32-1.652.047-2.255-.556l-2.53-2.529zm8.894 2.665a16.089 16.089 0 002.49-2.49l7.41 7.408a1.761 1.761 0 11-2.492 2.491l-7.408-7.409z"/></svg>