<svg xmlns="http://www.w3.org/2000/svg" width="24" height="24" viewBox="0 0 24 24"><path fill-rule="evenodd" d="M12.571 4.815c2.155-2.42 5.703-2.42 7.858 0 2.095 2.352 2.095 6.124 0 8.476l-5.777 6.487c-1.451 1.63-3.853 1.63-5.304 0L3.571 13.29c-2.095-2.352-2.095-6.124 0-8.476 2.155-2.42 5.703-2.42 7.858 0a.983.983 0 01.018.02l.553.657.553-.656a.983.983 0 01.018-.021zm1.502 1.32l-.656.78a1.831 1.831 0 01-2.834 0l-.656-.78c-1.36-1.517-3.505-1.513-4.862.01-1.42 1.594-1.42 4.222 0 5.816l5.777 6.487c.655.736 1.66.736 2.316 0l5.777-6.487c1.42-1.594 1.42-4.222 0-5.816-1.357-1.523-3.501-1.527-4.862-.01z"/></svg>