<svg width="24" height="24" viewBox="0 0 24 24" fill="none" xmlns="http://www.w3.org/2000/svg">
<path d="M12 8.41669C11.0335 8.41669 10.25 9.20019 10.25 10.1667C10.25 10.719 9.80226 11.1667 9.24998 11.1667C8.69769 11.1667 8.24998 10.719 8.24998 10.1667C8.24998 8.09562 9.92891 6.41669 12 6.41669C14.071 6.41669 15.75 8.09562 15.75 10.1667C15.75 11.8915 14.5856 13.3443 13 13.7819V14.75C13 15.3023 12.5523 15.75 12 15.75C11.4477 15.75 11 15.3023 11 14.75V12.9167C11 12.3644 11.4477 11.9167 12 11.9167C12.9665 11.9167 13.75 11.1332 13.75 10.1667C13.75 9.20019 12.9665 8.41669 12 8.41669Z" fill="#F2F2F2"/>
<path d="M12.9166 17.5C12.9166 18.0063 12.5062 18.4167 11.9999 18.4167C11.4937 18.4167 11.0833 18.0063 11.0833 17.5C11.0833 16.9938 11.4937 16.5834 11.9999 16.5834C12.5062 16.5834 12.9166 16.9938 12.9166 17.5Z" fill="#F2F2F2"/>
<path fill-rule="evenodd" clip-rule="evenodd" d="M12 23C18.0751 23 23 18.0751 23 12C23 5.92487 18.0751 1 12 1C5.92487 1 1 5.92487 1 12C1 18.0751 5.92487 23 12 23ZM12 21.1667C17.0626 21.1667 21.1667 17.0626 21.1667 12C21.1667 6.93739 17.0626 2.83334 12 2.83334C6.93739 2.83334 2.83333 6.93739 2.83333 12C2.83333 17.0626 6.93739 21.1667 12 21.1667Z" fill="#F2F2F2"/>
</svg>
