<svg xmlns="http://www.w3.org/2000/svg" width="24" height="24" viewBox="0 0 24 24"><path d="M4.643 8.8H2v9.6c0 .884.746 1.6 1.667 1.6h16.666c.92 0 1.667-.716 1.667-1.6V8.8h-2.643c-.442 0-.866.169-1.178.469l-2.357 2.262c-.313.3-.737.469-1.179.469H9.357c-.442 0-.866-.169-1.178-.469L5.82 9.27a1.703 1.703 0 00-1.177-.47z"/><path d="M4.643 7.2H3.39l2.278-2.624A1.695 1.695 0 016.947 4h10.106c.495 0 .964.21 1.28.576L20.611 7.2h-1.254c-.884 0-1.732.337-2.357.937L14.643 10.4H9.357L7 8.137A3.405 3.405 0 004.643 7.2z"/></svg>