<svg xmlns="http://www.w3.org/2000/svg" width="24" height="24" viewBox="0 0 24 24"><path fill-rule="evenodd" d="M2.98 7.672A4 4 0 002 10.294V18.4c0 .884.746 1.6 1.667 1.6h16.666c.92 0 1.667-.716 1.667-1.6v-8.106a4 4 0 00-.98-2.622l-2.687-3.096A1.695 1.695 0 0017.053 4H6.947c-.494 0-.963.21-1.28.576L2.979 7.672zm16.164.337L17.053 5.6H6.947l-2.09 2.409a2.546 2.546 0 011.554.694l2.357 2.263a.85.85 0 00.589.234h5.286a.851.851 0 00.59-.234l2.356-2.263c.419-.402.97-.646 1.555-.694zM3.667 9.6h.976c.221 0 .433.084.59.234l2.356 2.263c.47.45 1.105.703 1.768.703h5.286c.663 0 1.299-.253 1.768-.703l2.357-2.263a.851.851 0 01.589-.234h.976v8.8H3.667V9.6z"/></svg>