<svg xmlns="http://www.w3.org/2000/svg" width="24" height="24" viewBox="0 0 24 24"><path d="M3.857 10.071L2.43 11.143a1.071 1.071 0 000 1.714l1.428 1.072c.13.097.27.16.413.191.288.064.46-.248.397-.537a7.53 7.53 0 010-3.166c.062-.289-.109-.601-.397-.537a1.073 1.073 0 00-.413.191zm4.078 8.233c.248.16.348.502.1.66a1.072 1.072 0 01-.43.158l-1.767.252a1.071 1.071 0 01-1.212-1.212l.252-1.768c.023-.161.079-.305.157-.428.16-.249.5-.15.661.099a7.54 7.54 0 002.24 2.239zm6.185 1.426c.064-.288-.248-.46-.537-.397a7.526 7.526 0 01-3.166 0c-.289-.063-.601.109-.537.397.031.142.094.283.191.413l1.072 1.428a1.071 1.071 0 001.714 0l1.072-1.428c.097-.13.16-.27.191-.413zm4.184-3.665c.16-.248.502-.348.66-.099.08.123.135.267.158.428l.252 1.768a1.071 1.071 0 01-1.212 1.212l-1.768-.252a1.072 1.072 0 01-.428-.157c-.249-.16-.15-.5.099-.66a7.542 7.542 0 002.24-2.24zM19.73 9.88c-.288-.064-.46.248-.397.537a7.534 7.534 0 010 3.166c-.062.289.109.601.397.537.142-.031.283-.094.413-.191l1.428-1.072a1.071 1.071 0 000-1.714l-1.428-1.072c-.13-.097-.27-.16-.413-.191zm-3.665-4.184c-.248-.16-.348-.502-.1-.66.124-.08.268-.135.43-.158l1.767-.252a1.071 1.071 0 011.212 1.212l-.252 1.768a1.07 1.07 0 01-.157.428c-.16.249-.5.149-.66-.099a7.54 7.54 0 00-2.24-2.24zM9.88 4.27c-.064.288.248.46.537.397a7.53 7.53 0 013.166 0c.289.062.601-.109.537-.397a1.074 1.074 0 00-.191-.413L12.857 2.43a1.071 1.071 0 00-1.714 0L10.07 3.857c-.097.13-.16.27-.191.413zM5.696 7.935c-.16.248-.502.348-.66.1a1.072 1.072 0 01-.158-.43l-.252-1.767a1.071 1.071 0 011.212-1.212l1.768.252c.161.023.305.079.428.157.249.16.15.5-.099.661a7.54 7.54 0 00-2.239 2.24zM12 17.357a5.357 5.357 0 100-10.714 5.357 5.357 0 000 10.714z"/></svg>