<svg xmlns="http://www.w3.org/2000/svg" width="24" height="24" viewBox="0 0 24 24"><path fill-rule="evenodd" d="M4.333 10.714c-.789 0-1.428.576-1.428 1.286 0 .71.64 1.286 1.428 1.286.79 0 1.429-.576 1.429-1.286 0-.71-.64-1.286-1.429-1.286zM1 12c0-1.657 1.492-3 3.333-3 1.841 0 3.334 1.343 3.334 3s-1.493 3-3.334 3C2.493 15 1 13.657 1 12zm11.048-1.286c-.79 0-1.429.576-1.429 1.286 0 .71.64 1.286 1.429 1.286s1.428-.576 1.428-1.286c0-.71-.64-1.286-1.428-1.286zM8.714 12c0-1.657 1.493-3 3.334-3 1.84 0 3.333 1.343 3.333 3s-1.492 3-3.333 3c-1.841 0-3.334-1.343-3.334-3zm10.953-1.286c-.79 0-1.429.576-1.429 1.286 0 .71.64 1.286 1.429 1.286s1.428-.576 1.428-1.286c0-.71-.64-1.286-1.428-1.286zM16.333 12c0-1.657 1.493-3 3.334-3C21.507 9 23 10.343 23 12s-1.492 3-3.333 3c-1.841 0-3.334-1.343-3.334-3z"/></svg>