<svg xmlns="http://www.w3.org/2000/svg" width="24" height="24" viewBox="0 0 24 24"><path d="M7.429 5c0-2.21 2.046-4 4.571-4s4.571 1.79 4.571 4v8c0 2.21-2.046 4-4.571 4s-4.571-1.79-4.571-4V5z"/><path d="M10.857 19.93V21H6.286c-.631 0-1.143.448-1.143 1s.512 1 1.143 1h11.428c.632 0 1.143-.448 1.143-1s-.511-1-1.143-1h-4.571v-1.07C17.02 19.443 20 16.525 20 13v-1.5c0-.552-.512-1-1.143-1s-1.143.448-1.143 1V13c0 2.761-2.558 5-5.714 5-3.156 0-5.714-2.239-5.714-5v-1.5c0-.552-.512-1-1.143-1S4 10.948 4 11.5V13c0 3.526 2.98 6.444 6.857 6.93z"/></svg>