<svg xmlns="http://www.w3.org/2000/svg" width="24" height="24" viewBox="0 0 24 24"><path d="M7.429 5c0-2.21 2.046-4 4.571-4s4.571 1.79 4.571 4v1.014l3.222-3.221a1 1 0 011.566 1.22L4.013 21.359a1 1 0 01-1.22-1.566l2.709-2.71C4.557 15.936 4 14.525 4 13v-1.5c0-.552.512-1 1.143-1s1.143.448 1.143 1V13c0 .92.283 1.781.778 2.521l.806-.805A3.576 3.576 0 017.429 13V5zm2.599 16h.83v-.829l2.267-2.268c2.5-.437 4.41-2.3 4.577-4.577l2.21-2.21A.89.89 0 0120 11.5V13c0 3.526-2.98 6.444-6.857 6.93V21h4.571c.632 0 1.143.448 1.143 1s-.511 1-1.143 1H8.028l2-2z"/></svg>