<svg xmlns="http://www.w3.org/2000/svg" width="24" height="24" viewBox="0 0 24 24"><path fill-rule="evenodd" d="M12 1C9.301 1 7.429 3.206 7.429 5.556v6.888C7.429 14.794 9.3 17 12 17s4.571-2.206 4.571-4.556V5.556C16.571 3.206 14.7 1 12 1zM6.286 11.5c0-.552-.512-1-1.143-1S4 10.948 4 11.5V13c0 3.526 2.98 6.444 6.857 6.93V21H6.286c-.631 0-1.143.448-1.143 1s.512 1 1.143 1h11.428c.632 0 1.143-.448 1.143-1s-.511-1-1.143-1h-4.571v-1.07C17.02 19.443 20 16.525 20 13v-1.5c0-.552-.512-1-1.143-1s-1.143.448-1.143 1V13c0 2.761-2.558 5-5.714 5-3.156 0-5.714-2.239-5.714-5v-1.5zM12 3c-1.088 0-2.286.978-2.286 2.556v6.888C9.714 14.022 10.912 15 12 15s2.286-.978 2.286-2.556V5.556C14.286 3.978 13.088 3 12 3z"/></svg>