<svg xmlns="http://www.w3.org/2000/svg" width="24" height="24" viewBox="0 0 24 24"><path d="M16.812 12.444a.258.258 0 00-.436-.187l-4.536 4.309c-.167.159-.07.434.16.434 2.841 0 4.812-2.206 4.812-4.556z"/><path d="M11.016 17.933a1.088 1.088 0 00-.902.273l-.137.13c-.544.517-.339 1.414.402 1.534.138.023.277.042.418.06V21H7.173l-1.9 1.806c.199.122.445.194.712.194h12.03c.664 0 1.203-.448 1.203-1s-.539-1-1.203-1h-4.812v-1.07c4.081-.486 7.218-3.404 7.218-6.93v-1.5c0-.552-.538-1-1.203-1-.664 0-1.203.448-1.203 1V13c0 2.761-2.693 5-6.015 5-.335 0-.664-.023-.984-.067z"/><path fill-rule="evenodd" d="M7.188 5.556C7.188 3.206 9.158 1 12 1c2.841 0 4.812 2.206 4.812 4.556v.458l3.391-3.221a1.092 1.092 0 011.489 0 .965.965 0 010 1.414l-4.88 4.636-2.406 2.286-3.665 3.482-1.592 1.512-.857.814-1.586 1.507-2.91 2.763c-.41.39-1.077.39-1.488 0a.965.965 0 010-1.414l2.852-2.71C4.165 15.936 3.579 14.525 3.579 13v-1.5c0-.552.539-1 1.203-1s1.203.448 1.203 1V13c0 .92.299 1.781.82 2.521l.963-.914a4.388 4.388 0 01-.58-2.163V5.556zm2.434 7.289L14.406 8.3V5.556C14.406 3.978 13.146 3 12 3c-1.145 0-2.406.978-2.406 2.556v6.888c0 .139.01.272.028.4z"/></svg>