<svg xmlns="http://www.w3.org/2000/svg" width="24" height="24" viewBox="0 0 24 24"><path fill-rule="evenodd" d="M20.873 12.922c.252-.007.39-.32.211-.498a6.111 6.111 0 00-4.896-1.768l-2.056-2.77A13.268 13.268 0 006.807 2.95l-3.53-.915a1.02 1.02 0 00-1.243 1.244l.915 3.529a13.268 13.268 0 004.937 7.325l2.77 2.056a6.111 6.111 0 001.768 4.896c.178.178.491.04.498-.211a8.137 8.137 0 012.388-5.563 8.137 8.137 0 015.563-2.388zM8.815 5.928a2.041 2.041 0 11-2.887 2.887 2.041 2.041 0 012.887-2.887z"/><path d="M18.186 20.742l2.624 1.147c.847.37 1.449-.232 1.079-1.079l-1.147-2.624c-.735-1.68-2.835-2.585-3.789-1.632l-.399.4c-.953.953-.049 3.053 1.632 3.788z"/></svg>