<svg xmlns="http://www.w3.org/2000/svg" width="24" height="24" viewBox="0 0 24 24"><path fill-rule="evenodd" d="M4.096 4.116c.087.847.25 2.027.548 3.209.317 1.258.762 2.415 1.354 3.187.541.707 1.467 1.437 2.423 2.065a23.311 23.311 0 002.18 1.26c.457.23.68.76.53 1.252-.345 1.129-.13 2.29.86 3.469.007-.101.017-.202.03-.303.134-1.018.583-1.93 1.255-2.81.304-.397.657-.792 1.052-1.191.396-.4.787-.756 1.18-1.062.871-.68 1.774-1.132 2.783-1.268.1-.013.2-.023.3-.03-1.227-1.052-2.44-1.243-3.631-.802a1.038 1.038 0 01-1.288-.51 23.46 23.46 0 00-1.274-2.218c-.607-.926-1.299-1.805-1.968-2.327C9.665 5.44 8.52 4.99 7.273 4.67a22.555 22.555 0 00-3.177-.554zm-2.086.09A1.99 1.99 0 014.184 2.01c.904.09 2.24.27 3.603.62 1.343.346 2.817.882 3.918 1.742.946.739 1.79 1.852 2.431 2.832.395.603.733 1.188.992 1.661 1.916-.38 3.762.324 5.34 1.918a6.703 6.703 0 011.455 2.211 1.06 1.06 0 01-.228 1.142c-.297.3-.742.39-1.13.23-.824-.34-1.454-.43-2-.356-.11.015-.22.037-.332.066.348.263.706.58.979.935.328.43.598.993.811 1.52.22.543.41 1.121.56 1.626.436 1.463-.94 2.852-2.389 2.413-.5-.152-1.072-.343-1.61-.566-.522-.216-1.08-.488-1.505-.82-.353-.275-.666-.636-.926-.988a2.77 2.77 0 00-.066.336c-.072.55.016 1.187.352 2.018a1.06 1.06 0 01-.228 1.142c-.296.3-.742.39-1.13.23a6.628 6.628 0 01-2.19-1.469c-1.497-1.511-2.208-3.272-1.946-5.116a24.977 24.977 0 01-1.66-.996c-1.005-.66-2.173-1.546-2.936-2.542-.851-1.112-1.383-2.6-1.725-3.955a25.44 25.44 0 01-.614-3.638zm13.344 12.01c.062.106.13.22.205.336.271.424.555.781.793.966.202.158.553.345 1.022.539.358.148.746.285 1.122.405-.12-.38-.255-.772-.401-1.133-.192-.474-.377-.828-.533-1.032-.184-.24-.537-.527-.958-.801a9.014 9.014 0 00-.332-.207 12.687 12.687 0 00-.918.927z"/></svg>