<svg width="24" height="24" viewBox="0 0 24 24" fill="none" xmlns="http://www.w3.org/2000/svg">
<path fill-rule="evenodd" clip-rule="evenodd" d="M6.02591 6.02591C3.40811 8.64372 3.40811 12.888 6.02591 15.5058C8.64372 18.1236 12.888 18.1236 15.5058 15.5058C18.1236 12.888 18.1236 8.64372 15.5058 6.02591C12.888 3.40811 8.64372 3.40811 6.02591 6.02591ZM4.56746 16.9643C1.14418 13.541 1.14418 7.99075 4.56746 4.56746C7.99075 1.14418 13.541 1.14418 16.9643 4.56746C20.1409 7.74404 20.3698 12.7521 17.6511 16.1926L21.6979 20.2395C22.1007 20.6422 22.1007 21.2952 21.6979 21.6979C21.2952 22.1007 20.6422 22.1007 20.2395 21.6979L16.1926 17.6511C12.7521 20.3698 7.74404 20.1409 4.56746 16.9643Z" fill="#F2F2F2"/>
</svg>
