<svg xmlns="http://www.w3.org/2000/svg" width="24" height="24" viewBox="0 0 24 24"><path fill-rule="evenodd" d="M16 12a4 4 0 11-8 0 4 4 0 018 0zm-2 0a2 2 0 11-4 0 2 2 0 014 0z"/><path fill-rule="evenodd" d="M8.077 3.834c-.852-.852-2.19-1.059-3.116-.287-.513.427-.987.9-1.414 1.414-.772.925-.565 2.264.287 3.116L4.757 9H3.451c-1.205 0-2.298.8-2.406 2a11.139 11.139 0 000 2c.108 1.2 1.2 2 2.406 2h1.306l-.923.923c-.852.852-1.059 2.19-.287 3.116.427.513.9.987 1.414 1.414.925.772 2.264.565 3.116-.287L9 19.243v1.306c0 1.205.8 2.298 2 2.406a11.133 11.133 0 002 0c1.2-.108 2-1.2 2-2.406v-1.306l.923.923c.852.852 2.19 1.059 3.116.287.513-.427.986-.9 1.414-1.414.772-.925.565-2.264-.287-3.116L19.243 15h1.306c1.205 0 2.298-.8 2.406-2a11.133 11.133 0 000-2c-.108-1.2-1.201-2-2.406-2h-1.306l.923-.923c.852-.852 1.059-2.19.287-3.116a11.07 11.07 0 00-1.414-1.414c-.925-.772-2.264-.565-3.116.287L15 4.757V3.451c0-1.205-.8-2.298-2-2.406a11.139 11.139 0 00-2 0c-1.2.108-2 1.2-2 2.406v1.306l-.923-.923zM6.382 4.968a9.007 9.007 0 00-1.414 1.414l1.185 1.186c.552.551.608 1.403.307 2.123-.3.72-.949 1.309-1.73 1.309H3.056a9.01 9.01 0 00-.018 1.82l.018.18H4.73c.78 0 1.429.589 1.73 1.31.3.72.244 1.57-.308 2.122l-1.185 1.186.115.14a9.07 9.07 0 001.3 1.274l1.185-1.186c.551-.551 1.403-.607 2.123-.306.72.3 1.309.949 1.309 1.73v1.675A8.802 8.802 0 0012 21a9.142 9.142 0 001-.055V19.27c0-.78.589-1.429 1.31-1.73.72-.3 1.57-.244 2.122.307l1.186 1.186a9.071 9.071 0 001.414-1.414l-1.186-1.186c-.551-.551-.607-1.403-.307-2.123.301-.72.95-1.309 1.73-1.309h1.676A8.863 8.863 0 0021 12a9.142 9.142 0 00-.055-1H19.27c-.78 0-1.429-.589-1.73-1.31-.3-.72-.244-1.57.307-2.122l1.186-1.186a9.07 9.07 0 00-1.414-1.414l-1.186 1.185c-.551.552-1.403.608-2.123.307-.72-.3-1.31-.949-1.31-1.73V3.056a9.01 9.01 0 00-1.82-.018l-.18.018V4.73c0 .78-.588 1.429-1.308 1.73-.72.3-1.572.244-2.123-.308L6.382 4.968z"/></svg>