<svg xmlns="http://www.w3.org/2000/svg" width="24" height="24" viewBox="0 0 24 24"><path fill-rule="evenodd" d="M20.021 5.156c1.257.696 2.156 2.077 1.95 3.645-.46 3.476-2.087 6.96-3.945 9.57-.932 1.31-1.944 2.433-2.934 3.241C14.14 22.388 13.056 23 12 23s-2.14-.612-3.091-1.388c-.99-.808-2.003-1.931-2.935-3.24C4.117 15.76 2.49 12.277 2.03 8.8c-.207-1.568.692-2.949 1.949-3.645l6.782-3.754c.928-.54 1.469-.533 2.478 0l6.782 3.754zM4.96 6.916l6.03-3.339v17.045a6.501 6.501 0 01-.802-.567c-.817-.666-1.71-1.645-2.566-2.847-1.716-2.412-3.183-5.591-3.59-8.67-.08-.606.26-1.253.928-1.622z"/></svg>