<svg width="24" height="24" viewBox="0 0 24 24" fill="none" xmlns="http://www.w3.org/2000/svg">
<path fill-rule="evenodd" clip-rule="evenodd" d="M7.78885 4.41953C5.12925 3.11437 2 5.01251 2 7.93094L2 16.0691C2 18.9875 5.12924 20.8856 7.78885 19.5805L16.0807 15.5114C19.0288 14.0646 19.0289 9.93538 16.0807 8.4886L7.78885 4.41953ZM4 7.93094C4 6.47172 5.56463 5.52265 6.89443 6.17523L15.1862 10.2443C16.6603 10.9677 16.6603 13.0323 15.1862 13.7557L6.89442 17.8248C5.56462 18.4773 4 17.5283 4 16.0691V7.93094Z" fill="#F2F2F2"/>
<path d="M22 5.12973C22 4.58768 21.5523 4.14826 21 4.14826C20.4477 4.14826 20 4.58768 20 5.12973V18.8703C20 19.4123 20.4477 19.8517 21 19.8517C21.5523 19.8517 22 19.4123 22 18.8703V5.12973Z" fill="#F2F2F2"/>
</svg>
