<svg xmlns="http://www.w3.org/2000/svg" width="24" height="24" viewBox="0 0 24 24"><path d="M9.771 22c-.401 0-.535-.136-.803-.407-1.872-2.31-2.14-4.754-2.274-5.433-.401-.136-1.204-.543-1.338-.679-.668-.407-1.872-1.086-3.076-2.037-.268-.272-.402-.815-.134-1.222 1.338-2.445 3.478-3.667 4.28-4.21l.134-.136c.134-.815.402-3.124 1.606-5.432.133-.272.669-.544 1.07-.408 2.408.815 4.28 2.173 4.816 2.716h.134c.802-.271 3.21-.95 5.886-.136.401.136.802.544.669 1.087-.402 2.445-.937 4.482-1.204 5.16V11c.535.68 1.739 2.31 2.408 4.89.133.271 0 .543-.134.814a.734.734 0 01-.67.408c-2.54.271-5.618.271-6.42.271-.67.951-2.14 2.58-4.281 4.346a1.014 1.014 0 01-.67.271z"/></svg>