<svg xmlns="http://www.w3.org/2000/svg" width="24" height="24" viewBox="0 0 24 24"><path fill-rule="evenodd" d="M9.348 4.034c1.958.693 3.435 1.789 3.786 2.145l.066.067.078.054c.104.072.353.223.702.199a1.11 1.11 0 00.38-.099c.697-.227 2.507-.692 4.502-.121-.342 2.05-.778 3.703-.986 4.271a1.082 1.082 0 00.09 1.127l.015.021.016.02c.43.546 1.392 1.844 1.951 3.905-2.192.22-4.79.221-5.5.221h-.518l-.3.425c-.532.757-1.772 2.144-3.627 3.679-1.314-1.65-1.614-3.358-1.755-4.163-.015-.09-.03-.168-.042-.234l-.112-.568-.549-.186a5.128 5.128 0 01-.56-.25 4.907 4.907 0 01-.3-.165l-.039-.039-.105-.064-.321-.193c-.588-.352-1.38-.826-2.19-1.447.957-1.721 2.403-2.67 3.248-3.224.086-.056.165-.108.237-.157a1.178 1.178 0 00.523-.614l.037-.094.016-.1.039-.245c.131-.853.386-2.499 1.218-4.171zm-2.69 10.331a.103.103 0 01.001 0zM8.551 2.157c.32-.135.794-.237 1.282-.072 1.884.638 3.45 1.627 4.285 2.3 1.066-.299 3.146-.685 5.438.013l.014.005.015.005c.626.212 1.523.955 1.263 2.12-.302 1.83-.692 3.45-.975 4.354.583.8 1.48 2.233 2.025 4.292.137.347.116.677.053.931-.057.232-.16.442-.214.55l-.01.02a1.658 1.658 0 01-1.434.924c-1.96.206-4.236.239-5.343.244-.741.943-2.001 2.265-3.688 3.66A1.917 1.917 0 019.994 22c-.306 0-.612-.055-.908-.227a2.423 2.423 0 01-.504-.415l-.023-.023-.034-.034-.03-.038c-1.51-1.862-1.978-3.827-2.16-4.808a9.391 9.391 0 01-.636-.332 2.433 2.433 0 01-.26-.174 54.774 54.774 0 00-.227-.135c-.623-.372-1.605-.96-2.58-1.73l-.05-.038L2.54 14c-.499-.506-.782-1.486-.269-2.311 1.207-2.186 3.06-3.396 3.907-3.946.146-.945.478-2.872 1.482-4.8.208-.412.595-.661.892-.787zM6.49 7.541l-.005.002.004-.002z"/></svg>