<svg xmlns="http://www.w3.org/2000/svg" width="24" height="24" viewBox="0 0 24 24"><path d="M3.66 8.525a1.741 1.741 0 01-.57-.984L2.115 2.59a.4.4 0 01.472-.47l4.858.99a1.7 1.7 0 01.967.58l6.248 7.513-1.322 1.345-7.35-7.48a.842.842 0 00-1.206 0 .878.878 0 000 1.227l7.35 7.48-1.09 1.109L3.66 8.525zm14.59 2.407a1.402 1.402 0 00-2.007 0l-5.12 5.21a1.462 1.462 0 000 2.041 1.401 1.401 0 002.006 0l1.354-1.378 2.405 2.447a2.682 2.682 0 00-.004.145c0 1.438 1.145 2.603 2.558 2.603C20.855 22 22 20.835 22 19.397c0-1.437-1.145-2.602-2.558-2.602a2.58 2.58 0 00-.142.004l-2.405-2.447 1.354-1.379a1.462 1.462 0 000-2.041z"/></svg>