<svg xmlns="http://www.w3.org/2000/svg" width="24" height="24" viewBox="0 0 24 24"><path fill-rule="evenodd" d="M19.457 10.107l-5.564-5.564a1.967 1.967 0 00-2.782 0l-6.17 6.17c-.337.338-.54.785-.572 1.26l-.397 5.962a1.967 1.967 0 002.093 2.093l5.961-.397a1.967 1.967 0 001.26-.572l6.17-6.17a1.967 1.967 0 000-2.782zm-4.173-6.955l5.564 5.564a3.934 3.934 0 010 5.564l-6.17 6.17a3.934 3.934 0 01-2.521 1.144l-5.961.397a3.934 3.934 0 01-4.187-4.187l.397-5.961c.064-.95.47-1.846 1.144-2.52l6.17-6.17a3.934 3.934 0 015.564 0zm-7.65 10.432a1.967 1.967 0 112.782 2.782 1.967 1.967 0 01-2.782-2.782z"/></svg>