<svg xmlns="http://www.w3.org/2000/svg" width="24" height="24" viewBox="0 0 24 24"><path d="M3 14.632c0 1.162.895 2.105 2 2.105h2c.552 0 1 .471 1 1.053 0 .58-.448 1.052-1 1.052H5c-2.21 0-4-1.885-4-4.21V6.21C1 3.885 2.79 2 5 2h14c2.21 0 4 1.885 4 4.21v8.422c0 2.325-1.79 4.21-4 4.21h-1.5c-.552 0-1-.471-1-1.052 0-.582.448-1.053 1-1.053H19c1.105 0 2-.943 2-2.105V6.21c0-1.163-.895-2.106-2-2.106H5c-1.105 0-2 .943-2 2.106v8.42z"/><path d="M12.707 7.571a.965.965 0 00-1.414 0l-5 5.264a1.092 1.092 0 000 1.488.965.965 0 001.414 0L11 10.857v10.09c0 .582.448 1.053 1 1.053s1-.471 1-1.053v-10.09l3.293 3.466a.965.965 0 001.414 0c.39-.41.39-1.077 0-1.488l-5-5.264z"/></svg>