<svg xmlns="http://www.w3.org/2000/svg" width="24" height="24" viewBox="0 0 24 24"><path fill-rule="evenodd" d="M9.798 10c-3.283 0-5.265 1.286-6.408 2.854-1.101 1.513-1.334 3.168-1.385 3.817-.042.53.205 1.026.628 1.308.39.26 1.218.759 2.42 1.196C5.569 21.37 7.497 23 9.798 23c2.3 0 4.23-1.63 4.745-3.825a11.54 11.54 0 002.42-1.196c.423-.282.67-.778.629-1.308-.052-.65-.284-2.304-1.386-3.817C15.064 11.286 13.08 10 9.798 10zM6.2 17.457a10.49 10.49 0 01-2.208-.97c.087-.592.326-1.561.964-2.437.747-1.025 2.13-2.05 4.843-2.05 2.714 0 4.097 1.025 4.843 2.05.638.876.877 1.845.965 2.437-.439.26-1.191.651-2.21.97a.995.995 0 00-.685.854C12.56 19.821 11.313 21 9.798 21s-2.762-1.179-2.913-2.689a.995.995 0 00-.686-.854zM9.798 1C7.642 1 5.893 2.79 5.893 5s1.749 4 3.905 4c2.157 0 3.905-1.79 3.905-4s-1.748-4-3.905-4zM7.846 5c0-1.105.874-2 1.952-2 1.078 0 1.952.895 1.952 2s-.874 2-1.952 2C8.72 7 7.846 6.105 7.846 5z"/><path d="M18.095 4.5c.54 0 .977.448.977 1v2h1.952c.539 0 .976.448.976 1s-.437 1-.976 1H19.07v2c0 .552-.437 1-.976 1a.988.988 0 01-.976-1v-2h-1.952a.988.988 0 01-.976-1c0-.552.437-1 .976-1h1.952v-2c0-.552.437-1 .976-1z"/></svg>