<svg xmlns="http://www.w3.org/2000/svg" width="24" height="24" viewBox="0 0 24 24"><path fill-rule="evenodd" d="M12 10c-3.368 0-5.402 1.286-6.574 2.854-1.13 1.513-1.368 3.168-1.421 3.817a1.42 1.42 0 00.644 1.308c.4.26 1.25.759 2.483 1.196A5.007 5.007 0 0012 23c2.36 0 4.338-1.63 4.868-3.825 1.233-.438 2.084-.937 2.483-1.196a1.42 1.42 0 00.644-1.308c-.053-.65-.291-2.304-1.421-3.817C17.402 11.286 15.368 10 12 10zm-3.692 7.457a10.906 10.906 0 01-2.266-.97c.09-.592.335-1.561.99-2.437C7.797 13.025 9.216 12 12 12s4.203 1.025 4.968 2.05c.655.876.9 1.845.99 2.437-.45.26-1.222.651-2.266.97a1 1 0 00-.704.854A3.003 3.003 0 0112 21a3.003 3.003 0 01-2.988-2.689 1 1 0 00-.704-.854zM12 1a4.003 4.003 0 00-4.006 4c0 2.21 1.794 4 4.006 4a4.003 4.003 0 004.006-4c0-2.21-1.794-4-4.006-4zM9.997 5c0-1.105.897-2 2.003-2s2.003.895 2.003 2S13.106 7 12 7a2.001 2.001 0 01-2.003-2z"/></svg>