<svg xmlns="http://www.w3.org/2000/svg" width="24" height="24" viewBox="0 0 24 24"><path d="M16.637 9.726a.98.98 0 10-1.439-1.329l-4.705 5.097-1.691-1.832a.98.98 0 00-1.44 1.329l2.411 2.612a.98.98 0 001.44 0l5.424-5.877z"/><path fill-rule="evenodd" d="M14.032 1.816a2.938 2.938 0 00-4.064 0l-1.29 1.235a.98.98 0 01-.656.272l-1.786.039a2.938 2.938 0 00-2.874 2.874l-.039 1.786a.98.98 0 01-.272.656l-1.235 1.29a2.938 2.938 0 000 4.064l1.235 1.29a.98.98 0 01.272.656l.039 1.786a2.938 2.938 0 002.874 2.874l1.786.039a.98.98 0 01.656.272l1.29 1.235a2.938 2.938 0 004.064 0l1.29-1.235a.98.98 0 01.656-.272l1.786-.039a2.938 2.938 0 002.874-2.874l.039-1.786a.98.98 0 01.272-.656l1.235-1.29a2.938 2.938 0 000-4.064l-1.235-1.29a.98.98 0 01-.272-.656l-.039-1.786a2.938 2.938 0 00-2.874-2.874l-1.786-.039a.98.98 0 01-.656-.272l-1.29-1.235zm-2.71 1.415a.98.98 0 011.355 0l1.29 1.235c.531.509 1.234.8 1.969.816l1.786.038a.98.98 0 01.958.958l.038 1.786a2.94 2.94 0 00.816 1.969l1.235 1.29a.98.98 0 010 1.354l-1.235 1.29a2.938 2.938 0 00-.816 1.969l-.038 1.786a.98.98 0 01-.958.958l-1.786.038a2.938 2.938 0 00-1.969.816l-1.29 1.235a.98.98 0 01-1.354 0l-1.29-1.235a2.938 2.938 0 00-1.969-.816l-1.786-.038a.98.98 0 01-.958-.958l-.038-1.786a2.938 2.938 0 00-.816-1.969l-1.235-1.29a.98.98 0 010-1.354l1.235-1.29a2.94 2.94 0 00.816-1.969l.038-1.786a.98.98 0 01.958-.958l1.786-.038a2.938 2.938 0 001.969-.816l1.29-1.235z"/></svg>