<svg xmlns="http://www.w3.org/2000/svg" width="24" height="24" viewBox="0 0 24 24"><path fill-rule="evenodd" d="M20.089 5.217C21.356 4.58 23 5.427 23 6.963v10.074c0 1.537-1.644 2.383-2.911 1.746l-5.422-2.128c-.173.279-.4.517-.653.706-.55.413-1.266.639-2.014.639H4c-.748 0-1.463-.226-2.014-.64C1.434 16.948 1 16.3 1 15.5v-7c0-.8.434-1.447.986-1.86C2.536 6.225 3.252 6 4 6h8c.748 0 1.463.226 2.014.64.252.188.48.426.653.705l5.422-2.128zM15 9.363v5.274l5.93 2.328.055.03.01.005H21V7h-.005l-.01.005-.056.03L15 9.363zM3.186 8.239C3.013 8.37 3 8.471 3 8.5v7c0 .029.013.131.186.26.173.13.457.24.814.24h8c.357 0 .641-.11.814-.24.173-.129.186-.231.186-.26v-7c0-.029-.013-.131-.186-.26C12.641 8.11 12.357 8 12 8H4c-.357 0-.641.11-.814.24z"/></svg>