<svg xmlns="http://www.w3.org/2000/svg" width="24" height="24" viewBox="0 0 24 24"><path fill-rule="evenodd" d="M14.492 5.989c0-1.615-1.772-2.554-3.048-1.616L6.976 7.66a1.89 1.89 0 01-1.12.37H3.89C2.294 8.03 1 9.363 1 11.008v1.985c0 1.644 1.294 2.977 2.891 2.977h1.965c.401 0 .793.13 1.12.37l4.468 3.287c1.276.938 3.048-.001 3.048-1.615V5.989zM8.096 9.275l4.469-3.286v12.023l-4.469-3.287a3.78 3.78 0 00-2.24-.74H3.89c-.532 0-.964-.444-.964-.992v-1.986c0-.548.432-.992.964-.992h1.965a3.78 3.78 0 002.24-.74z"/><path d="M22.718 14.517a.944.944 0 01-1.363 0l-.682-.702-.681.702a.944.944 0 01-1.363 0 1.014 1.014 0 010-1.404l.681-.702-.681-.702a1.014 1.014 0 010-1.403.944.944 0 011.363 0l.681.702.682-.702a.944.944 0 011.363 0 1.014 1.014 0 010 1.403l-.682.702.682.702a1.014 1.014 0 010 1.404z"/></svg>