<svg xmlns="http://www.w3.org/2000/svg" width="24" height="24" viewBox="0 0 24 24"><path fill-rule="evenodd" d="M12.265 4.062L5.5 7.826H3c-1.104 0-2 .935-2 2.087v4.174c0 1.152.896 2.087 2 2.087h2.5l6.765 3.764c.333.185.735-.067.735-.46V4.522c0-.393-.402-.645-.735-.46zm5.283 4.606c-.427-.345-1.033-.251-1.354.208-.32.46-.234 1.112.193 1.457.473.382.776.986.776 1.667 0 .68-.303 1.285-.776 1.667-.427.345-.514.997-.193 1.457.32.46.927.553 1.354.208.94-.758 1.55-1.969 1.55-3.332 0-1.364-.61-2.574-1.55-3.332z"/></svg>