<svg xmlns="http://www.w3.org/2000/svg" width="24" height="24" viewBox="0 0 24 24"><path fill-rule="evenodd" d="M16 5.989c0-1.615-1.839-2.554-3.162-1.616L8.2 7.66c-.34.24-.746.37-1.162.37H5c-1.657 0-3 1.333-3 2.978v1.985c0 1.644 1.343 2.977 3 2.977h2.039c.416 0 .823.13 1.162.37l4.636 3.287c1.324.938 3.163-.001 3.163-1.615V5.989zM9.364 9.275L14 5.99v12.023l-4.636-3.287a4.021 4.021 0 00-2.325-.74H5c-.552 0-1-.444-1-.992v-1.986a.996.996 0 011-.992h2.039a4.02 4.02 0 002.325-.74z"/><path d="M18.538 7.157a.992.992 0 10-.46 1.932A2.486 2.486 0 0120 11.504c0 1.172-.82 2.156-1.922 2.415a.992.992 0 00-.744 1.194 1 1 0 001.204.738C20.522 15.385 22 13.617 22 11.503c0-2.113-1.478-3.882-3.462-4.347z"/></svg>