<svg xmlns="http://www.w3.org/2000/svg" width="24" height="24" viewBox="0 0 24 24"><path fill-rule="evenodd" d="M11.366 4.373c1.267-.938 3.025.001 3.025 1.616v12.023c0 1.614-1.758 2.553-3.025 1.615L6.931 16.34a1.866 1.866 0 00-1.111-.37H3.87C2.285 15.97 1 14.637 1 12.992v-1.985C1 9.364 2.285 8.03 3.87 8.03h1.95c.398 0 .787-.13 1.111-.37l4.435-3.287zm1.112 1.616L8.043 9.275a3.732 3.732 0 01-2.223.74H3.87c-.529 0-.957.444-.957.992v1.986c0 .548.428.992.957.992h1.95c.797 0 1.574.259 2.223.74l4.435 3.287V5.989z"/><path d="M16.33 4.997c.121-.534.637-.864 1.15-.738 3.165.776 5.52 3.724 5.52 7.245 0 3.52-2.355 6.469-5.52 7.244-.513.126-1.029-.204-1.15-.737-.121-.534.197-1.069.711-1.194 2.32-.57 4.046-2.733 4.046-5.313 0-2.58-1.726-4.744-4.046-5.313-.514-.126-.832-.66-.711-1.194z"/><path d="M16.819 7.157c-.514-.126-1.03.204-1.151.738-.122.533.197 1.068.71 1.194 1.055.258 1.84 1.243 1.84 2.415s-.785 2.156-1.84 2.415c-.513.126-.832.66-.71 1.194.121.533.637.864 1.15.738 1.899-.466 3.313-2.234 3.313-4.347 0-2.113-1.414-3.882-3.312-4.347z"/></svg>